#!OML:ASF H:\Dans Jumps\Project 1\Capture day 1\Session 1\subject.ASF
:FULLY-SPECIFIED
:DEGREES
200
root 0.793165 17.5259 -14.1396 7.45987 -0.608435 -1.78633
lowerback -1.69948 -0.790873 0.391861
upperback 3.40134 -1.15292 2.02761
thorax 4.49484 -0.598983 1.80981
lowerneck -13.7611 0.147584 -2.11064
upperneck 28.2889 0.905515 -0.503666
head 11.4737 0.114729 0.301294
rclavicle 2.5842e-015 -1.98785e-015
rhumerus -22.7553 -18.9096 -78.4155
rradius 25.4591
rwrist 32.9375
rhand -17.858 -26.1573
rfingers 7.12502
rthumb 8.40734 -55.9699
lclavicle 2.5842e-015 -1.98785e-015
lhumerus -19.3555 3.49493 85.7562
lradius 18.1031
lwrist -0.610603
lhand -24.1215 -3.40468
lfingers 7.12502
lthumb 2.36005 26.562
rfemur -15.2978 -2.45212 19.5399
rtibia 21.6908
rfoot -13.0917 -4.10276
rtoes 10.0966
lfemur -14.7651 8.60897 -18.0024
ltibia 20.087
lfoot -10.6861 5.0038
ltoes -9.12876
201
root 0.791184 17.525 -14.1422 7.46165 -0.631141 -1.77956
lowerback -1.67475 -0.782913 0.374975
upperback 3.41891 -1.14121 2.0182
thorax 4.49887 -0.593648 1.81046
lowerneck -13.7746 0.153074 -2.13439
upperneck 28.3225 0.915169 -0.485189
head 11.4892 0.118402 0.3136
rclavicle -1.09332e-015 -8.74653e-015
rhumerus -22.7182 -18.8876 -78.4538
rradius 25.4576
rwrist 32.9619
rhand -17.8943 -26.1494
rfingers 7.12502
rthumb 8.37238 -55.9635
lclavicle -1.09332e-015 -8.74653e-015
lhumerus -19.3485 3.55498 85.7177
lradius 18.0661
lwrist -0.664316
lhand -24.1344 -3.36466
lfingers 7.12502
lthumb 2.34753 26.6022
rfemur -15.3442 -2.43886 19.5406
rtibia 21.7486
rfoot -13.0999 -4.10435
rtoes 10.0469
lfemur -14.7912 8.60938 -18.0038
ltibia 20.1231
lfoot -10.6898 5.0254
ltoes -9.13666
202
root 0.789211 17.5243 -14.1447 7.46458 -0.648719 -1.77239
lowerback -1.65044 -0.777423 0.358823
upperback 3.43327 -1.13279 2.00916
thorax 4.49986 -0.589913 1.8109
lowerneck -13.7823 0.161333 -2.15299
upperneck 28.3581 0.928029 -0.469326
head 11.5042 0.123726 0.324496
rclavicle 8.94531e-016 8.34896e-015
rhumerus -22.6874 -18.8548 -78.4928
rradius 25.4545
rwrist 32.998
rhand -17.953 -26.1549
rfingers 7.12502
rthumb 8.31568 -55.9712
lclavicle 8.94531e-016 8.34896e-015
lhumerus -19.347 3.61155 85.6809
lradius 18.0258
lwrist -0.720737
lhand -24.1453 -3.32696
lfingers 7.12502
lthumb 2.33704 26.64
rfemur -15.3866 -2.42592 19.5407
rtibia 21.7994
rfoot -13.1081 -4.10789
rtoes 10.0145
lfemur -14.8136 8.60732 -18.0057
ltibia 20.1473
lfoot -10.6877 5.04267
ltoes -9.14434
203
root 0.7873 17.5239 -14.147 7.46851 -0.662191 -1.76353
lowerback -1.63059 -0.773731 0.342653
upperback 3.44721 -1.12683 1.99982
thorax 4.50303 -0.587397 1.81084
lowerneck -13.7894 0.17196 -2.16093
upperneck 28.3952 0.943384 -0.460053
head 11.5197 0.130464 0.331484
rclavicle 6.55989e-015 -3.02153e-014
rhumerus -22.6573 -18.8214 -78.5314
rradius 25.4438
rwrist 33.0583
rhand -18.0427 -26.1518
rfingers 7.12502
rthumb 8.22912 -55.9715
lclavicle 6.55989e-015 -3.02153e-014
lhumerus -19.3469 3.66416 85.6462
lradius 17.9831
lwrist -0.778811
lhand -24.1433 -3.27397
lfingers 7.12502
lthumb 2.33898 26.693
rfemur -15.4249 -2.4183 19.5389
rtibia 21.8425
rfoot -13.1143 -4.10952
rtoes 9.98671
lfemur -14.8311 8.60372 -18.0098
ltibia 20.1606
lfoot -10.6824 5.05579
ltoes -9.14599
204
root 0.785466 17.5237 -14.149 7.47334 -0.672485 -1.75192
lowerback -1.61342 -0.771196 0.325547
upperback 3.45898 -1.12237 1.99033
thorax 4.50551 -0.585648 1.81105
lowerneck -13.7902 0.184211 -2.15932
upperneck 28.4302 0.960542 -0.458339
head 11.5333 0.138132 0.334278
rclavicle -2.98177e-015 2.06736e-014
rhumerus -22.6346 -18.778 -78.5687
rradius 25.4378
rwrist 33.1124
rhand -18.1406 -26.1519
rfingers 7.12502
rthumb 8.13465 -55.9753
lclavicle -2.98177e-015 2.06736e-014
lhumerus -19.3518 3.70912 85.6155
lradius 17.9398
lwrist -0.833336
lhand -24.1349 -3.2281
lfingers 7.12502
lthumb 2.34706 26.7387
rfemur -15.4585 -2.4123 19.5334
rtibia 21.8777
rfoot -13.1192 -4.11079
rtoes 9.97256
lfemur -14.8441 8.59855 -18.0173
ltibia 20.1644
lfoot -10.6755 5.0661
ltoes -9.1404
205
root 0.783685 17.5236 -14.1508 7.48003 -0.679901 -1.73992
lowerback -1.60082 -0.769462 0.309904
upperback 3.46923 -1.11909 1.98103
thorax 4.50903 -0.584434 1.81051
lowerneck -13.7882 0.197532 -2.14199
upperneck 28.4645 0.978909 -0.469981
head 11.5462 0.146376 0.3296
rclavicle -1.45113e-014 7.55382e-015
rhumerus -22.6146 -18.7318 -78.6048
rradius 25.4357
rwrist 33.1516
rhand -18.2234 -26.1569
rfingers 7.12502
rthumb 8.05475 -55.9834
lclavicle -1.45113e-014 7.55382e-015
lhumerus -19.3607 3.75286 85.587
lradius 17.899
lwrist -0.893208
lhand -24.1127 -3.18731
lfingers 7.12502
lthumb 2.36848 26.7793
rfemur -15.4886 -2.40693 19.5271
rtibia 21.9057
rfoot -13.1226 -4.11284
rtoes 9.96446
lfemur -14.854 8.59329 -18.0258
ltibia 20.1603
lfoot -10.6679 5.07382
ltoes -9.13261
206
root 0.781891 17.5237 -14.1522 7.488 -0.683604 -1.72755
lowerback -1.59226 -0.768541 0.295584
upperback 3.47787 -1.11697 1.9718
thorax 4.51316 -0.58375 1.80919
lowerneck -13.7906 0.209903 -2.12552
upperneck 28.5065 0.996589 -0.482207
head 11.5629 0.154038 0.32479
rclavicle 1.15295e-014 -1.11319e-014
rhumerus -22.6 -18.6808 -78.6401
rradius 25.4442
rwrist 33.1577
rhand -18.2783 -26.1684
rfingers 7.12502
rthumb 8.00172 -55.997
lclavicle 1.15295e-014 -1.11319e-014
lhumerus -19.3735 3.79471 85.5609
lradius 17.8622
lwrist -0.95477
lhand -24.0866 -3.15252
lfingers 7.12502
lthumb 2.39368 26.8138
rfemur -15.5155 -2.40217 19.5204
rtibia 21.9276
rfoot -13.1244 -4.11772
rtoes 9.95267
lfemur -14.8616 8.58875 -18.0346
ltibia 20.1503
lfoot -10.6603 5.077
ltoes -9.11709
